<svg xmlns="http://www.w3.org/2000/svg" width="685" height="685" fill="none"><g fill-rule="evenodd"><path fill="#4C4145" d="M0 0h685v685H0z"/><path fill="ivory" d="M84 77h522v523H84z"/><path fill="#37393E" d="M191 189h302v306H191z"/></g><g stroke="ivory" stroke-linecap="square" stroke-width="6"><path d="m4.268 5.487 675.854 674.025M678.902 6.706 5.487 678.902"/></g><g fill="#232E36" fill-rule="evenodd"><path d="m133.143 22 142.475 147.395-109.89 106.221L23.255 128.221 133.143 22ZM665.294 128.221 522.82 275.616 412.93 169.395 555.405 22l109.89 106.221ZM522.941 400l142.475 147.395-109.89 106.221-142.474-147.395L522.94 400ZM275.496 506.221 133.021 653.616 23.132 547.395 165.607 400l109.89 106.221Z"/></g></svg>